<svg id="Layer_1" data-name="Layer 1" xmlns="http://www.w3.org/2000/svg" viewBox="0 0 384.44 107.92"><defs><style>.cls-1{fill:#0099d6;}.cls-2{fill:#fff;}</style></defs><title>truman_logo_white</title><path class="cls-1" d="M589.24,302a27.74,27.74,0,1,1-55.47,0c0-21.95,27.73-50,27.73-50S589.24,280.75,589.24,302Z" transform="translate(-204.8 -252)"/><path class="cls-2" d="M224.37,358.59a2.79,2.79,0,0,1-.81-2V311.56H207.63a2.71,2.71,0,0,1-2-.85,2.68,2.68,0,0,1-.85-2v-5.82a2.68,2.68,0,0,1,.85-2,2.71,2.71,0,0,1,2-.85h43.59a2.56,2.56,0,0,1,1.94.85,2.76,2.76,0,0,1,.81,2v5.82a2.76,2.76,0,0,1-.81,2,2.56,2.56,0,0,1-1.94.85H235.29v45.05a2.91,2.91,0,0,1-2.83,2.83h-6.07A2.71,2.71,0,0,1,224.37,358.59Z" transform="translate(-204.8 -252)"/><path class="cls-2" d="M260.4,358.63a2.58,2.58,0,0,1-.85-1.94V330.24a2.71,2.71,0,0,1,.85-2,2.75,2.75,0,0,1,2-.85h24.75q10.19,0,10.19-7.68a7.45,7.45,0,0,0-2.71-6.15,11.1,11.1,0,0,0-7.16-2.18H262.38a2.79,2.79,0,0,1-2-.81,2.56,2.56,0,0,1-.85-1.94v-5.82a2.56,2.56,0,0,1,.85-1.94,2.79,2.79,0,0,1,2-.81h25.8a23.62,23.62,0,0,1,10.88,2.42,17.84,17.84,0,0,1,7.36,6.88A20,20,0,0,1,309,319.73a18.47,18.47,0,0,1-3,10.55,16,16,0,0,1-8.45,6.27l12.13,18.6a2.7,2.7,0,0,1,.49,1.54,2.66,2.66,0,0,1-.85,1.9,2.75,2.75,0,0,1-2,.85h-7.28a2.6,2.6,0,0,1-2.35-1.3l-12.21-19.32H271.28v17.87a2.62,2.62,0,0,1-.85,1.94,2.79,2.79,0,0,1-2,.81h-6.07A2.79,2.79,0,0,1,260.4,358.63Z" transform="translate(-204.8 -252)"/><path class="cls-2" d="M329.43,356.53a23.48,23.48,0,0,1-9.06-9.47,28.5,28.5,0,0,1-3.24-13.66V302.91a2.76,2.76,0,0,1,.81-2,2.58,2.58,0,0,1,1.94-.85h6.23a2.58,2.58,0,0,1,1.94.85,2.76,2.76,0,0,1,.81,2v30.65q0,6.79,3.64,10.75t10.19,4q6.39,0,10.15-3.88t3.76-10.84V302.91a2.76,2.76,0,0,1,.81-2,2.49,2.49,0,0,1,1.86-.85h6.31a2.58,2.58,0,0,1,1.94.85,2.8,2.8,0,0,1,.81,2V333.4a28.3,28.3,0,0,1-3.28,13.66,23.84,23.84,0,0,1-9.1,9.47,27.63,27.63,0,0,1-26.52,0Z" transform="translate(-204.8 -252)"/><path class="cls-2" d="M381.22,358.59a2.74,2.74,0,0,1-.84-2v-53.7a2.89,2.89,0,0,1,2.83-2.83h7a2.76,2.76,0,0,1,2.27,1.13l17,22.48,16.66-22.48a2.48,2.48,0,0,1,2.26-1.13h7a2.71,2.71,0,0,1,2,.85,2.68,2.68,0,0,1,.85,2v53.7a2.71,2.71,0,0,1-.85,2,2.75,2.75,0,0,1-2,.85h-6.07a2.91,2.91,0,0,1-2.83-2.83V320.38l-14.88,19.08a2.79,2.79,0,0,1-4.36,0L392.1,320.3v36.31a2.91,2.91,0,0,1-2.83,2.83h-6.06A2.76,2.76,0,0,1,381.22,358.59Z" transform="translate(-204.8 -252)"/><path class="cls-2" d="M442.44,358.63a2.62,2.62,0,0,1-.85-1.94,2.51,2.51,0,0,1,.25-1.13l22.8-53.78a2.7,2.7,0,0,1,1-1.26,2.91,2.91,0,0,1,1.58-.44h7.6a2.76,2.76,0,0,1,1.5.44,3.13,3.13,0,0,1,1.09,1.26l22.65,53.45a2.63,2.63,0,0,1,.4,1.38,2.79,2.79,0,0,1-.81,2,2.69,2.69,0,0,1-2,.85h-6.71a2.81,2.81,0,0,1-1.58-.45,2.51,2.51,0,0,1-1-1.25l-5.9-13.91H459.55l-5.82,13.91a3.06,3.06,0,0,1-1.1,1.25,2.64,2.64,0,0,1-1.49.45h-6.71A2.8,2.8,0,0,1,442.44,358.63Zm35.3-26L471,316.49l-6.71,16.1Z" transform="translate(-204.8 -252)"/><path class="cls-2" d="M506.25,358.59a2.75,2.75,0,0,1-.85-2v-53.7a2.91,2.91,0,0,1,2.83-2.83h7a2.48,2.48,0,0,1,2.26,1.13l28.15,38.25V302.91a2.76,2.76,0,0,1,.81-2,2.55,2.55,0,0,1,1.94-.85h6.14a2.89,2.89,0,0,1,2.83,2.83v53.7a2.89,2.89,0,0,1-2.83,2.83h-7.11a2.79,2.79,0,0,1-2.27-1.13l-28.06-38.42v36.72a2.71,2.71,0,0,1-.85,2,2.75,2.75,0,0,1-2,.85h-6.07A2.75,2.75,0,0,1,506.25,358.59Z" transform="translate(-204.8 -252)"/><path class="cls-2" d="M325.83,282a2.57,2.57,0,0,1,1.86-.83H357a2.75,2.75,0,0,1,1.94.79,2.55,2.55,0,0,1,.83,1.9v6a2.55,2.55,0,0,1-.83,1.9,2.71,2.71,0,0,1-1.94.79H327.69a2.7,2.7,0,0,1-2.69-2.69v-6A2.59,2.59,0,0,1,325.83,282Z" transform="translate(-204.8 -252)"/><path class="cls-2" d="M561.79,355.87h-1.42v-.72H564v.72H562.6v3.95h-.81Z" transform="translate(-204.8 -252)"/><path class="cls-2" d="M568.74,356.28l-1.43,3.54H567l-1.43-3.54v3.54h-.82v-4.67h1.16l1.26,3.14,1.28-3.14h1.15v4.67h-.82Z" transform="translate(-204.8 -252)"/></svg>